<svg id="visual" viewBox="0 0 960 300" width="960" height="300" xmlns="http://www.w3.org/2000/svg" xmlns:xlink="http://www.w3.org/1999/xlink" version="1.1">
    <rect x="0" y="0" width="960" height="300" fill="#fff"></rect>
    <path d="M0 147L13.3 153.2C26.7 159.3 53.3 171.7 80 170.2C106.7 168.7 133.3 153.3 160 153.5C186.7 153.7 213.3 169.3 240 171.8C266.7 174.3 293.3 163.7 320 153.3C346.7 143 373.3 133 400 130.3C426.7 127.7 453.3 132.3 480 139.2C506.7 146 533.3 155 560 162C586.7 169 613.3 174 640 168C666.7 162 693.3 145 720 136C746.7 127 773.3 126 800 129.5C826.7 133 853.3 141 880 147.5C906.7 154 933.3 159 946.7 161.5L960 164L960 301L946.7 301C933.3 301 906.7 301 880 301C853.3 301 826.7 301 800 301C773.3 301 746.7 301 720 301C693.3 301 666.7 301 640 301C613.3 301 586.7 301 560 301C533.3 301 506.7 301 480 301C453.3 301 426.7 301 400 301C373.3 301 346.7 301 320 301C293.3 301 266.7 301 240 301C213.3 301 186.7 301 160 301C133.3 301 106.7 301 80 301C53.3 301 26.7 301 13.3 301L0 301Z" fill="#fafcfd"></path>
    <path d="M0 189L13.3 191.7C26.7 194.3 53.3 199.7 80 194.3C106.7 189 133.3 173 160 171.8C186.7 170.7 213.3 184.3 240 189.3C266.7 194.3 293.3 190.7 320 189.3C346.7 188 373.3 189 400 188.8C426.7 188.7 453.3 187.3 480 181.7C506.7 176 533.3 166 560 168.7C586.7 171.3 613.3 186.7 640 188C666.7 189.3 693.3 176.7 720 170.8C746.7 165 773.3 166 800 172.3C826.7 178.7 853.3 190.3 880 190.8C906.7 191.3 933.3 180.7 946.7 175.3L960 170L960 301L946.7 301C933.3 301 906.7 301 880 301C853.3 301 826.7 301 800 301C773.3 301 746.7 301 720 301C693.3 301 666.7 301 640 301C613.3 301 586.7 301 560 301C533.3 301 506.7 301 480 301C453.3 301 426.7 301 400 301C373.3 301 346.7 301 320 301C293.3 301 266.7 301 240 301C213.3 301 186.7 301 160 301C133.3 301 106.7 301 80 301C53.3 301 26.7 301 13.3 301L0 301Z" fill="#f9fbfd"></path>
    <path d="M0 180L13.3 180.5C26.7 181 53.3 182 80 183.5C106.7 185 133.3 187 160 187.3C186.7 187.7 213.3 186.3 240 191.7C266.7 197 293.3 209 320 209.8C346.7 210.7 373.3 200.3 400 198.7C426.7 197 453.3 204 480 202C506.7 200 533.3 189 560 185.8C586.7 182.7 613.3 187.3 640 190.8C666.7 194.3 693.3 196.7 720 199.3C746.7 202 773.3 205 800 209.3C826.7 213.7 853.3 219.3 880 219.8C906.7 220.3 933.3 215.7 946.7 213.3L960 211L960 301L946.7 301C933.3 301 906.7 301 880 301C853.3 301 826.7 301 800 301C773.3 301 746.7 301 720 301C693.3 301 666.7 301 640 301C613.3 301 586.7 301 560 301C533.3 301 506.7 301 480 301C453.3 301 426.7 301 400 301C373.3 301 346.7 301 320 301C293.3 301 266.7 301 240 301C213.3 301 186.7 301 160 301C133.3 301 106.7 301 80 301C53.3 301 26.7 301 13.3 301L0 301Z" fill="#f8fafc"></path>
    <path d="M0 210L13.3 211.8C26.7 213.7 53.3 217.3 80 218.3C106.7 219.3 133.3 217.7 160 216.5C186.7 215.3 213.3 214.7 240 215C266.7 215.3 293.3 216.7 320 222C346.7 227.3 373.3 236.7 400 234.2C426.7 231.7 453.3 217.3 480 212.2C506.7 207 533.3 211 560 211C586.7 211 613.3 207 640 211C666.7 215 693.3 227 720 230.5C746.7 234 773.3 229 800 225.3C826.7 221.7 853.3 219.3 880 217.2C906.7 215 933.3 213 946.7 212L960 211L960 301L946.7 301C933.3 301 906.7 301 880 301C853.3 301 826.7 301 800 301C773.3 301 746.7 301 720 301C693.3 301 666.7 301 640 301C613.3 301 586.7 301 560 301C533.3 301 506.7 301 480 301C453.3 301 426.7 301 400 301C373.3 301 346.7 301 320 301C293.3 301 266.7 301 240 301C213.3 301 186.7 301 160 301C133.3 301 106.7 301 80 301C53.3 301 26.7 301 13.3 301L0 301Z" fill="#f3f7fa"></path>
    <path d="M0 253L13.3 254.3C26.7 255.7 53.3 258.3 80 254.3C106.7 250.3 133.3 239.7 160 237.3C186.7 235 213.3 241 240 246.5C266.7 252 293.3 257 320 256.3C346.7 255.7 373.3 249.3 400 244.7C426.7 240 453.3 237 480 234.8C506.7 232.7 533.3 231.3 560 230.3C586.7 229.3 613.3 228.7 640 230.2C666.7 231.7 693.3 235.3 720 235.5C746.7 235.7 773.3 232.3 800 235.3C826.7 238.3 853.3 247.7 880 251.5C906.7 255.3 933.3 253.7 946.7 252.8L960 252L960 301L946.7 301C933.3 301 906.7 301 880 301C853.3 301 826.7 301 800 301C773.3 301 746.7 301 720 301C693.3 301 666.7 301 640 301C613.3 301 586.7 301 560 301C533.3 301 506.7 301 480 301C453.3 301 426.7 301 400 301C373.3 301 346.7 301 320 301C293.3 301 266.7 301 240 301C213.3 301 186.7 301 160 301C133.3 301 106.7 301 80 301C53.3 301 26.7 301 13.3 301L0 301Z" fill="#eaf0f6"></path>
    <path d="M0 256L13.3 256.8C26.7 257.7 53.3 259.3 80 260.8C106.7 262.3 133.3 263.7 160 266.5C186.7 269.3 213.3 273.7 240 273.2C266.7 272.7 293.3 267.3 320 268.2C346.7 269 373.3 276 400 276.8C426.7 277.7 453.3 272.3 480 269.5C506.7 266.7 533.3 266.3 560 265.8C586.7 265.3 613.3 264.7 640 266.2C666.7 267.7 693.3 271.3 720 272.8C746.7 274.3 773.3 273.7 800 271.8C826.7 270 853.3 267 880 268.3C906.7 269.7 933.3 275.3 946.7 278.2L960 281L960 301L946.7 301C933.3 301 906.7 301 880 301C853.3 301 826.7 301 800 301C773.3 301 746.7 301 720 301C693.3 301 666.7 301 640 301C613.3 301 586.7 301 560 301C533.3 301 506.7 301 480 301C453.3 301 426.7 301 400 301C373.3 301 346.7 301 320 301C293.3 301 266.7 301 240 301C213.3 301 186.7 301 160 301C133.3 301 106.7 301 80 301C53.3 301 26.7 301 13.3 301L0 301Z" fill="#e0e9f2"></path>
</svg>
